# xmcd CD database file
#
# Track frame offsets:
#	150
#	2542
#	15400
#	25560
#	41735
#	56247
#	74612
#	87474
#	106804
#	124124
#	138649
#	157554
#	175452
#	193205
#	207457
#	220162
#	233457
#	246144
#	259589
#	273767
#
# Disc length: 4067 seconds
#
# Revision: 0
# Processed by: cddbd v1.5PL3 Copyright (c) Steve Scherf et al.
# Submitted via: CDex 1.51
#
DISCID=100fe114
DTITLE=Variados - Chao Preto - As melhores de Barretos 2003
DYEAR=2003
DGENRE=Country
TTITLE0=Jorge Moises - Abertura
TTITLE1=Matogrosso e Mathias - Depois de uma
TTITLE2=Ataide e Alexandre - Amor Carrapicho
TTITLE3=Juliano Cezar - Rumo a Goiania
TTITLE4=Ze Antonio e Divaney - To doidao
TTITLE5=Jayne - Dia de formatura
TTITLE6=Eric e Henrique - Cheio de ma intencao
TTITLE7=West Rocky - A Malvada
TTITLE8=Junyo e Janyo - Pop Star
TTITLE9=Luiz Claudio e Giuliano - Morena Boiadeira
TTITLE10=Jorge Moises - Mete o chifre nele
TTITLE11=Durval e Davi - Fa No 1
TTITLE12=Eric e Henrique - Feito Tatuagem
TTITLE13=Isaac Junior - Danca do Cowboy
TTITLE14=Delley e Doryval - Desespero do mar
TTITLE15=Joao Carreiro e Capataz - Te amarei para sempre
TTITLE16=Fred e Pedrito - Recortado Paulista
TTITLE17=Jovelino Lopez e Marcel - To facinho To facinho
TTITLE18=Leyde e Laura - Cutuca Peao
TTITLE19=Jorge Moises - Estoria do Luisinho
EXTD=YEAR: 2003
EXTT0=
EXTT1=
EXTT2=
EXTT3=
EXTT4=
EXTT5=
EXTT6=
EXTT7=
EXTT8=
EXTT9=
EXTT10=
EXTT11=
EXTT12=
EXTT13=
EXTT14=
EXTT15=
EXTT16=
EXTT17=
EXTT18=
EXTT19=
PLAYORDER=
